<?xml version="1.0" encoding="UTF-8"?>
<svg xmlns="http://www.w3.org/2000/svg" viewBox="0 0 45 45">
  <defs>
    <style>
      .st1 {
        fill: #24ae1d;
      }
      .st2 {
        fill: #89df00;
      }
    </style>
  </defs>
  <g transform="translate(7, 0)">
    <path class="st1" d="M11.89,23.34c-3.69-3.61-5.68-14.75-.63-19.78,1.85-1.85,4.22-3.09,6.79-3.56-.86,1-1.33,2.27-1.34,3.58,0,2.31.52,4.5,6.84,11.47,5.12,5.67,6.47,8.84,6.45,14.88,0,1-.13,2-.36,2.98-.09-3.05-1.33-5.95-3.47-8.13-5.94-5.98-11.46-8.64-12.25-14.54-.93,5.86,4.62,9.06,10.74,14.77,3.67,3.44,4.42,8.74,2.42,13.08-.59,1.29-1.41,2.47-2.42,3.48-4.59,4.57-12.03,4.57-16.62,0-.17-.17-.45-.47-.59-.63-1.88-2.1-3.11-4.83-3.63-8.05-.98-6.38-3.19-8.19-3.81-8.81,3.96,0,5.38,5.64,5.66,8.04.38,2.68,1.33,5.36,3.27,7.52l.03.03.03.03c2.81,2.78,7.36,2.77,10.15-.03,1.34-1.34,2.09-3.16,2.08-5.06.05-1.89-.72-3.71-2.11-5-3.76-3.28-4.84-3.94-7.22-6.27Z"/>
    <path class="st2" d="M18.11,30.62c1.07,1.05,1.68,2.48,1.68,3.98.03,3.16-2.52,5.74-5.69,5.77-1.55.01-3.03-.59-4.12-1.69-5.75-6.43-1.77-18.44-1.77-18.44,2.46,5.92,4.37,4.87,9.9,10.38Z"/>
  </g>
</svg>
