<svg width="127" height="45" viewBox="0 0 127 45" fill="none" xmlns="http://www.w3.org/2000/svg">
<g clip-path="url(#clip0_186_320)">
<path d="M11.8926 23.3401C8.19876 19.7347 6.21212 8.58629 11.2667 3.55827C13.1155 1.7129 15.4831 0.471774 18.0576 0C17.1994 0.997984 16.7241 2.26815 16.7205 3.58367C16.7205 5.89355 17.243 8.08367 23.5567 15.055C28.6748 20.7272 30.0264 23.8917 30.0083 29.9359C30.0047 30.9393 29.8831 31.9373 29.6454 32.9117C29.5547 29.8615 28.3137 26.9583 26.1711 24.7772C20.2347 18.7966 14.7066 16.1329 13.921 10.2393C12.9903 16.0966 18.5366 19.3028 24.658 25.0113C28.3246 28.4534 29.0776 33.7536 27.0782 38.0903C26.4868 39.3841 25.6667 40.5635 24.658 41.5687C20.0678 46.1413 12.6256 46.1413 8.03366 41.5687C7.86312 41.4018 7.58371 41.0952 7.44764 40.9391C5.56441 38.8361 4.33614 36.1071 3.81363 32.8881C2.8321 26.5083 0.618671 24.6956 0 24.0823C3.9624 24.0823 5.37573 29.7218 5.65876 32.1187C6.03976 34.797 6.98863 37.477 8.92992 39.6363L8.95531 39.6653L8.98434 39.6944C11.7965 42.476 16.3395 42.4597 19.1316 39.6599C20.4706 38.3171 21.2217 36.499 21.2163 34.6046C21.2652 32.7139 20.4978 30.894 19.1081 29.6056C15.3525 26.3232 14.2657 25.6609 11.8926 23.3401Z" fill="#24AE1D"/>
<path d="M241.749 474.602C166.661 401.288 126.277 174.595 229.025 72.3543C266.606 34.8304 314.735 9.59313 367.067 0C349.623 20.2932 339.961 46.1208 339.887 72.8709C339.887 119.84 350.508 164.375 478.851 306.132C582.89 421.47 610.365 485.818 609.996 608.721C609.923 629.125 607.452 649.418 602.62 669.231C600.776 607.208 575.55 548.174 531.995 503.824C411.323 382.212 298.95 328.048 282.981 208.208C264.061 327.31 376.804 392.507 501.237 508.583C575.772 578.576 591.077 686.351 550.435 774.534C538.412 800.842 521.742 824.825 501.237 845.265C407.93 938.245 256.648 938.245 163.305 845.265C159.838 841.871 154.159 835.635 151.393 832.462C113.111 789.699 88.1434 734.206 77.5219 668.752C57.5698 539.023 12.5761 502.163 0 489.692C80.5461 489.692 109.276 604.367 115.029 653.108C122.774 707.567 142.062 762.063 181.524 805.97L182.04 806.561L182.63 807.151C239.794 863.714 332.142 863.382 388.9 806.45C416.118 779.147 431.386 742.176 431.276 703.656C432.271 665.21 416.671 628.202 388.421 602.006C312.079 535.26 289.988 521.792 241.749 474.602Z" fill="#24AE1D"/>
<path d="M18.1089 30.6163C19.1829 31.6651 19.7889 33.1004 19.7925 34.5974C19.8197 37.7565 17.2707 40.3385 14.0993 40.3657C12.5535 40.3784 11.0694 39.7724 9.97904 38.68C4.22594 32.2476 8.21193 20.2373 8.21193 20.2373C10.6685 26.1563 12.5844 25.1093 18.1089 30.6163Z" fill="#89DF00"/>
<path d="M40.9141 11.8542H44.0546V40.0101H40.9141V11.8542ZM48.779 17.2905C48.779 17.2905 48.779 17.296 48.779 17.2978C48.7808 18.4718 49.7388 19.4208 50.9162 19.419C52.0937 19.4172 53.048 18.4645 53.0462 17.2905C53.0444 16.1165 52.0864 15.1676 50.909 15.1694C49.7388 15.1839 48.7935 16.1256 48.779 17.2905ZM49.3396 40.0083H52.4801V22.803H49.3396V40.0083ZM63.8067 22.3512C61.5316 22.3549 59.3 22.9609 57.337 24.104L58.6451 26.7097C58.6451 26.7097 61.1887 25.2617 63.8067 25.2617C65.1765 25.2617 68.1683 25.7462 68.1683 29.319V30.2534C66.6062 29.3008 64.8028 28.8091 62.9703 28.8381C59.0805 28.8381 56.1268 31.2206 56.1268 34.572C56.1268 38.2863 59.4561 40.4583 62.5603 40.4583C64.8753 40.4583 67.0525 39.3678 68.4313 37.5151V40.0101H71.3106V28.6911C71.3106 25.4867 68.8831 22.3567 63.8085 22.353L63.8067 22.3512ZM63.2461 37.7002C61.3012 37.7002 59.2801 36.8093 59.2801 34.572C59.2801 32.7829 60.9492 31.4438 63.6416 31.4438C65.2364 31.4093 66.8094 31.8357 68.1665 32.6704V35.1109C68.1665 35.1109 66.2977 37.6984 63.2443 37.6984L63.2461 37.7002ZM73.7871 25.6464H77.1562V35.0583C77.1562 38.8561 79.8867 40.4583 82.3542 40.4583C83.3647 40.4583 84.4515 40.2333 85.9446 39.4149L84.7853 36.8456C84.1975 37.2484 83.5153 37.4915 82.8041 37.5514C81.1205 37.5514 80.3004 36.5843 80.3004 34.9095V25.6355H85.6798V22.8049H80.2968V17.5518H77.1526V22.8049H73.7871V25.6464ZM96.8285 22.3567C93.5392 22.3567 92.0043 25.4486 92.0043 25.4486V22.8067H89.0961V40.0119H92.2366V28.1722C92.2366 28.1722 93.4685 25.2762 96.199 25.2762C96.8793 25.2417 97.5597 25.3651 98.1838 25.6373L99.3431 22.8067C98.5376 22.5091 97.6867 22.3567 96.8285 22.3585V22.3567ZM102.353 16.5938C102.195 17.0456 102.195 17.5355 102.353 17.9873C102.739 19.0942 103.953 19.6784 105.065 19.2938C106.176 18.9091 106.764 17.7006 106.377 16.5938C105.991 15.4869 104.777 14.9026 103.665 15.2873C103.05 15.5014 102.567 15.9823 102.353 16.5938ZM102.796 40.0101H105.936V22.8049H102.796V40.0101ZM117.901 22.3603C112.765 22.4619 108.975 26.6426 109.204 31.8557C109.4 36.6968 113.426 40.5073 118.292 40.4565C123.428 40.3549 127.218 36.1742 126.989 30.9647C126.795 26.1218 122.769 22.3095 117.901 22.3603ZM118.097 37.5641C114.619 37.5641 112.337 34.8097 112.337 31.4111C112.337 28.0125 114.619 25.2581 118.097 25.2581C121.575 25.2581 123.854 28.0198 123.854 31.4111C123.854 34.8024 121.575 37.5641 118.097 37.5641Z" fill="#111111"/>
</g>
<defs>
<clipPath id="clip0_186_320">
<rect width="127" height="45" fill="white"/>
</clipPath>
</defs>
</svg>
