<?xml version="1.0" encoding="UTF-8"?>
<svg id="Layer_1" xmlns="http://www.w3.org/2000/svg" xmlns:xlink="http://www.w3.org/1999/xlink" version="1.1" viewBox="0 0 127 45">
  <!-- Generator: Adobe Illustrator 29.8.2, SVG Export Plug-In . SVG Version: 2.1.1 Build 3)  -->
  <defs>
    <style>
      .st0 {
        fill: none;
      }

      .st1 {
        fill: #111;
      }

      .st2 {
        fill: #24ae1d;
      }

      .st3 {
        fill: #89df00;
      }

      .st4 {
        clip-path: url(#clippath);
      }
    </style>
    <clipPath id="clippath">
      <rect class="st0" width="127" height="45"/>
    </clipPath>
  </defs>
  <g class="st4">
    <g>
      <path class="st2" d="M11.89,23.34c-3.69-3.61-5.68-14.75-.63-19.78,1.85-1.85,4.22-3.09,6.79-3.56-.86,1-1.33,2.27-1.34,3.58,0,2.31.52,4.5,6.84,11.47,5.12,5.67,6.47,8.84,6.45,14.88,0,1-.13,2-.36,2.98-.09-3.05-1.33-5.95-3.47-8.13-5.94-5.98-11.46-8.64-12.25-14.54-.93,5.86,4.62,9.06,10.74,14.77,3.67,3.44,4.42,8.74,2.42,13.08-.59,1.29-1.41,2.47-2.42,3.48-4.59,4.57-12.03,4.57-16.62,0-.17-.17-.45-.47-.59-.63-1.88-2.1-3.11-4.83-3.63-8.05-.98-6.38-3.19-8.19-3.81-8.81,3.96,0,5.38,5.64,5.66,8.04.38,2.68,1.33,5.36,3.27,7.52l.03.03.03.03c2.81,2.78,7.36,2.77,10.15-.03,1.34-1.34,2.09-3.16,2.08-5.06.05-1.89-.72-3.71-2.11-5-3.76-3.28-4.84-3.94-7.22-6.27Z"/>
      <path class="st2" d="M241.75,474.6c-75.09-73.31-115.47-300.01-12.72-402.25C266.61,34.83,314.73,9.59,367.07,0c-17.44,20.29-27.11,46.12-27.18,72.87,0,46.97,10.62,91.5,138.96,233.26,104.04,115.34,131.51,179.69,131.14,302.59-.07,20.4-2.54,40.7-7.38,60.51-1.84-62.02-27.07-121.06-70.62-165.41-120.67-121.61-233.04-175.78-249.01-295.62-18.92,119.1,93.82,184.3,218.26,300.38,74.53,69.99,89.84,177.77,49.2,265.95-12.02,26.31-28.69,50.29-49.2,70.73-93.31,92.98-244.59,92.98-337.93,0-3.47-3.39-9.15-9.63-11.91-12.8-38.28-42.76-63.25-98.26-73.87-163.71C57.57,539.02,12.58,502.16,0,489.69c80.55,0,109.28,114.68,115.03,163.42,7.75,54.46,27.03,108.96,66.5,152.86l.52.59.59.59c57.16,56.56,149.51,56.23,206.27-.7,27.22-27.3,42.49-64.27,42.38-102.79.99-38.45-14.61-75.45-42.86-101.65-76.34-66.75-98.43-80.21-146.67-127.4Z"/>
      <path class="st3" d="M18.11,30.62c1.07,1.05,1.68,2.48,1.68,3.98.03,3.16-2.52,5.74-5.69,5.77-1.55.01-3.03-.59-4.12-1.69-5.75-6.43-1.77-18.44-1.77-18.44,2.46,5.92,4.37,4.87,9.9,10.38Z"/>
      <path class="st1" d="M40.91,11.85h3.14v28.16h-3.14V11.85ZM48.78,17.29h0c0,1.18.96,2.13,2.14,2.13,1.18,0,2.13-.95,2.13-2.13s-.96-2.12-2.14-2.12c-1.17.01-2.12.96-2.13,2.12ZM49.34,40.01h3.14v-17.21h-3.14v17.21ZM63.81,22.35c-2.28,0-4.51.61-6.47,1.75l1.31,2.61s2.54-1.45,5.16-1.45c1.37,0,4.36.48,4.36,4.06v.93c-1.56-.95-3.37-1.44-5.2-1.42-3.89,0-6.84,2.38-6.84,5.73,0,3.71,3.33,5.89,6.43,5.89,2.31,0,4.49-1.09,5.87-2.94v2.5h2.88v-11.32c0-3.2-2.43-6.33-7.5-6.34h0ZM63.25,37.7c-1.94,0-3.97-.89-3.97-3.13,0-1.79,1.67-3.13,4.36-3.13,1.59-.03,3.17.39,4.52,1.23v2.44s-1.87,2.59-4.92,2.59h0ZM73.79,25.65h3.37v9.41c0,3.8,2.73,5.4,5.2,5.4,1.01,0,2.1-.23,3.59-1.04l-1.16-2.57c-.59.4-1.27.65-1.98.71-1.68,0-2.5-.97-2.5-2.64v-9.27h5.38v-2.83h-5.38v-5.25h-3.14v5.25h-3.37v2.84ZM96.83,22.36c-3.29,0-4.82,3.09-4.82,3.09v-2.64h-2.91v17.21h3.14v-11.84s1.23-2.9,3.96-2.9c.68-.03,1.36.09,1.98.36l1.16-2.83c-.81-.3-1.66-.45-2.51-.45h0ZM102.35,16.59c-.16.45-.16.94,0,1.39.39,1.11,1.6,1.69,2.71,1.31,1.11-.38,1.7-1.59,1.31-2.7-.39-1.11-1.6-1.69-2.71-1.31-.61.21-1.1.69-1.31,1.31ZM102.8,40.01h3.14v-17.21h-3.14v17.21ZM117.9,22.36c-5.14.1-8.93,4.28-8.7,9.5.2,4.84,4.22,8.65,9.09,8.6,5.14-.1,8.93-4.28,8.7-9.49-.19-4.84-4.22-8.66-9.09-8.6ZM118.1,37.56c-3.48,0-5.76-2.75-5.76-6.15s2.28-6.15,5.76-6.15,5.76,2.76,5.76,6.15-2.28,6.15-5.76,6.15Z"/>
    </g>
  </g>
</svg>